<mxfile host="app.diagrams.net" modified="2021-11-11T19:27:25.052Z" agent="5.0 (Windows NT 10.0; Win64; x64) AppleWebKit/537.36 (KHTML, like Gecko) Chrome/95.0.4638.69 Safari/537.36" etag="F3gDH-AhDI6VjbI5ffBD" version="15.7.3" type="github">
  <diagram id="uHvDgPRGvVn5vmF0DRpD" name="Page-1">
    <mxGraphModel dx="782" dy="436" grid="1" gridSize="10" guides="1" tooltips="1" connect="1" arrows="1" fold="1" page="1" pageScale="1" pageWidth="850" pageHeight="1100" math="0" shadow="0">
      <root>
        <mxCell id="0" />
        <mxCell id="1" parent="0" />
        <mxCell id="fYfaxitW8x-eYC0xSdOm-3" value="" style="edgeStyle=orthogonalEdgeStyle;rounded=0;orthogonalLoop=1;jettySize=auto;html=1;" edge="1" parent="1" source="fYfaxitW8x-eYC0xSdOm-1" target="fYfaxitW8x-eYC0xSdOm-2">
          <mxGeometry relative="1" as="geometry" />
        </mxCell>
        <mxCell id="fYfaxitW8x-eYC0xSdOm-1" value="Start" style="rounded=1;whiteSpace=wrap;html=1;" vertex="1" parent="1">
          <mxGeometry x="90" y="30" width="120" height="60" as="geometry" />
        </mxCell>
        <mxCell id="fYfaxitW8x-eYC0xSdOm-5" style="edgeStyle=orthogonalEdgeStyle;rounded=0;orthogonalLoop=1;jettySize=auto;html=1;exitX=0.5;exitY=1;exitDx=0;exitDy=0;entryX=0.5;entryY=0;entryDx=0;entryDy=0;" edge="1" parent="1" source="fYfaxitW8x-eYC0xSdOm-2" target="fYfaxitW8x-eYC0xSdOm-4">
          <mxGeometry relative="1" as="geometry" />
        </mxCell>
        <mxCell id="fYfaxitW8x-eYC0xSdOm-2" value="Make a list of numbers from 1 to 9" style="rounded=0;whiteSpace=wrap;html=1;" vertex="1" parent="1">
          <mxGeometry x="90" y="130" width="120" height="60" as="geometry" />
        </mxCell>
        <mxCell id="fYfaxitW8x-eYC0xSdOm-7" value="" style="edgeStyle=orthogonalEdgeStyle;rounded=0;orthogonalLoop=1;jettySize=auto;html=1;" edge="1" parent="1" source="fYfaxitW8x-eYC0xSdOm-4" target="fYfaxitW8x-eYC0xSdOm-6">
          <mxGeometry relative="1" as="geometry" />
        </mxCell>
        <mxCell id="fYfaxitW8x-eYC0xSdOm-4" value="Make an iterator starting at 0" style="rounded=0;whiteSpace=wrap;html=1;" vertex="1" parent="1">
          <mxGeometry x="90" y="230" width="120" height="60" as="geometry" />
        </mxCell>
        <mxCell id="fYfaxitW8x-eYC0xSdOm-9" value="yes" style="edgeStyle=orthogonalEdgeStyle;rounded=0;orthogonalLoop=1;jettySize=auto;html=1;" edge="1" parent="1" source="fYfaxitW8x-eYC0xSdOm-6" target="fYfaxitW8x-eYC0xSdOm-8">
          <mxGeometry relative="1" as="geometry" />
        </mxCell>
        <mxCell id="fYfaxitW8x-eYC0xSdOm-17" value="" style="edgeStyle=orthogonalEdgeStyle;rounded=0;orthogonalLoop=1;jettySize=auto;html=1;" edge="1" parent="1" source="fYfaxitW8x-eYC0xSdOm-6" target="fYfaxitW8x-eYC0xSdOm-16">
          <mxGeometry relative="1" as="geometry" />
        </mxCell>
        <mxCell id="fYfaxitW8x-eYC0xSdOm-6" value="Is the iterator less &lt;br&gt;than 9?" style="rhombus;whiteSpace=wrap;html=1;" vertex="1" parent="1">
          <mxGeometry x="290" y="220" width="160" height="80" as="geometry" />
        </mxCell>
        <mxCell id="fYfaxitW8x-eYC0xSdOm-11" value="" style="edgeStyle=orthogonalEdgeStyle;rounded=0;orthogonalLoop=1;jettySize=auto;html=1;" edge="1" parent="1" source="fYfaxitW8x-eYC0xSdOm-8" target="fYfaxitW8x-eYC0xSdOm-10">
          <mxGeometry relative="1" as="geometry" />
        </mxCell>
        <mxCell id="fYfaxitW8x-eYC0xSdOm-8" value="list of numbers at index of iterator gets cubed, and the iterator gets increased by 1" style="whiteSpace=wrap;html=1;" vertex="1" parent="1">
          <mxGeometry x="290" y="130" width="160" height="60" as="geometry" />
        </mxCell>
        <mxCell id="fYfaxitW8x-eYC0xSdOm-10" value="A" style="ellipse;whiteSpace=wrap;html=1;aspect=fixed;" vertex="1" parent="1">
          <mxGeometry x="350" y="40" width="40" height="40" as="geometry" />
        </mxCell>
        <mxCell id="fYfaxitW8x-eYC0xSdOm-14" value="" style="edgeStyle=orthogonalEdgeStyle;rounded=0;orthogonalLoop=1;jettySize=auto;html=1;" edge="1" parent="1" source="fYfaxitW8x-eYC0xSdOm-13" target="fYfaxitW8x-eYC0xSdOm-4">
          <mxGeometry relative="1" as="geometry" />
        </mxCell>
        <mxCell id="fYfaxitW8x-eYC0xSdOm-13" value="A" style="ellipse;whiteSpace=wrap;html=1;aspect=fixed;" vertex="1" parent="1">
          <mxGeometry y="240" width="40" height="40" as="geometry" />
        </mxCell>
        <mxCell id="fYfaxitW8x-eYC0xSdOm-19" value="" style="edgeStyle=orthogonalEdgeStyle;rounded=0;orthogonalLoop=1;jettySize=auto;html=1;" edge="1" parent="1" source="fYfaxitW8x-eYC0xSdOm-16" target="fYfaxitW8x-eYC0xSdOm-18">
          <mxGeometry relative="1" as="geometry" />
        </mxCell>
        <mxCell id="fYfaxitW8x-eYC0xSdOm-16" value="Print the values of&amp;nbsp;&lt;br&gt;the list" style="shape=parallelogram;perimeter=parallelogramPerimeter;whiteSpace=wrap;html=1;fixedSize=1;" vertex="1" parent="1">
          <mxGeometry x="295" y="330" width="150" height="70" as="geometry" />
        </mxCell>
        <mxCell id="fYfaxitW8x-eYC0xSdOm-18" value="End" style="rounded=1;whiteSpace=wrap;html=1;" vertex="1" parent="1">
          <mxGeometry x="310" y="430" width="120" height="60" as="geometry" />
        </mxCell>
      </root>
    </mxGraphModel>
  </diagram>
</mxfile>
